<svg id="Layer_1" data-name="Layer 1" xmlns="http://www.w3.org/2000/svg" xmlns:xlink="http://www.w3.org/1999/xlink" viewBox="0 0 361.4 406.43"><defs><style>.cls-1{fill:none;}.cls-2{clip-path:url(#clip-path);}.cls-3{fill:#90cccc;}</style><clipPath id="clip-path" transform="translate(-359.29 -337.23)"><rect class="cls-1" x="359.29" y="337.23" width="361.13" height="406.27"/></clipPath></defs><g class="cls-2"><path class="cls-3" d="M720.64,540.57V702.21c0,28.28-13.24,41.45-41.26,41.45H400.44c-27.75,0-41.13-13.56-41.13-41.72q0-161.58,0-323c0-28,13.47-41.71,41.36-41.71H679.56c27.73,0,41,13.58,41.05,41.71Q720.75,459.76,720.64,540.57Zm-345.46-90.1s-.78,170.94-.73,250.28c0,20.25,7,27,27.45,27H678.21c20.77,0,26.85-6.15,26.85-27.16,0-79-.65-250.27-.65-250.27ZM705,435.3v-56c.06-19.76-6.49-26.41-26.27-26.41H399.51c-11.61,0-22.72,3.52-23.71,15.38-1.87,22.16-.54,67.13-.54,67.13Z" transform="translate(-359.29 -337.23)"/><path class="cls-3" d="M479.1,660.31V567.5h45.31v53.13C538,619,551,619.07,562.89,615.42c18-5.45,26.93-23.75,23.94-43.85s-16.59-33.21-37.47-34.26c-18.79-.94-37.67-.34-56.52-.41H479.59V495.55c34,1.2,68.35-4.36,101.61,6.44,35.83,11.63,55.15,42.31,52.95,82.27-2,36.16-27.27,64.92-64.48,72.82a140,140,0,0,1-26,3.1C522.54,660.62,501.3,660.31,479.1,660.31Z" transform="translate(-359.29 -337.23)"/><path class="cls-3" d="M439.94,412.36c-10.39,0-20.78.47-31.16-.13-14.31-.78-19.94-7.43-19.68-21.8.26-13.42,6-19.39,20.2-19.63q30.45-.46,60.92,0c14.41.24,19.83,5.87,20.12,19.53.31,14.57-5.19,21.09-19.35,21.87C460.69,412.83,450.3,412.33,439.94,412.36Zm0-33.89h-31c-8.23,0-11,4.53-11.14,12.46s2.72,13,10.64,13.17c21.12.36,42.23.44,63.31,0,7.79-.19,11.06-5.66,10.93-13.3s-3.76-12.12-11.71-12.2c-10.38-.11-20.77,0-31.16,0Z" transform="translate(-359.29 -337.23)"/><path class="cls-3" d="M569,408.71A17.16,17.16,0,1,0,552,391.56,17.12,17.12,0,0,0,569,408.71Z" transform="translate(-359.29 -337.23)"/><path class="cls-3" d="M522.75,408.71a17.16,17.16,0,1,0-17.09-17.15A17.11,17.11,0,0,0,522.75,408.71Z" transform="translate(-359.29 -337.23)"/><path class="cls-3" d="M668.91,396.87a5.32,5.32,0,1,0-5.3-5.31A5.3,5.3,0,0,0,668.91,396.87Z" transform="translate(-359.29 -337.23)"/><path class="cls-3" d="M652,396.87a5.32,5.32,0,1,0-5.3-5.31A5.31,5.31,0,0,0,652,396.87Z" transform="translate(-359.29 -337.23)"/><path class="cls-3" d="M635.11,396.87a5.32,5.32,0,1,0-5.3-5.31A5.3,5.3,0,0,0,635.11,396.87Z" transform="translate(-359.29 -337.23)"/></g></svg>